PathFileType	4	(X/Y/Z)	TVC_39_BWA_03_walk_RCNL2025.trc
DataRate	CameraRate	NumFrames	NumMarkers	Units	OrigDataRate	OrigDataStartFrame	OrigNumFrames
100	100	10	27	mm	100	589	1176
Frame#	Time	R_Shoulder			L_Shoulder			C7			J_Notch			R_Elbow			L_Elbow			R_Wrist			L_Wrist			R_Asis			L_Asis			R_Psis			L_Psis			Sacral			Thoracic			Sternum			R_Thigh_Lateral			R_Knee_Lateral			R_Shank_Lateral			R_Ankle_Lateral			R_Heel			R_Toe			L_Thigh_Lateral			L_Knee_Lateral			L_Shank_Lateral			L_Ankle_Lateral			L_Heel			L_Toe		
		X1	Y1	Z1	X2	Y2	Z2	X3	Y3	Z3	X4	Y4	Z4	X5	Y5	Z5	X6	Y6	Z6	X7	Y7	Z7	X8	Y8	Z8	X9	Y9	Z9	X10	Y10	Z10	X11	Y11	Z11	X12	Y12	Z12	X13	Y13	Z13	X14	Y14	Z14	X15	Y15	Z15	X16	Y16	Z16	X17	Y17	Z17	X18	Y18	Z18	X19	Y19	Z19	X20	Y20	Z20	X21	Y21	Z21	X22	Y22	Z22	X23	Y23	Z23	X24	Y24	Z24	X25	Y25	Z25	X26	Y26	Z26	X27	Y27	Z27
589	5.88000000	389.917664	1481.579468	29.003464	435.576782	1493.968506	-336.403564	375.911102	1549.543823	-160.177048	528.199097	1431.380005	-148.104919	418.520569	1165.279785	150.433746	380.692810	1183.317993	-459.273163	559.250031	953.017944	119.711315	464.275803	934.287262	-435.834457	483.733856	959.476196	-2.913890	517.796997	942.344543	-295.957275	295.328278	968.827332	-114.442207	305.749542	959.899353	-220.832977	300.538910	964.363342	-167.637592	297.036346	1219.761841	-180.680801	578.061157	1273.046021	-134.006241	474.531281	767.228027	85.602036	498.883545	498.099030	57.186958	370.281158	355.079926	113.020920	279.000549	148.722031	25.166752	240.545609	152.221832	-32.631035	386.467957	47.364700	40.201603	467.903198	683.198669	-360.911469	488.790894	465.585541	-268.062531	445.866516	326.476288	-321.352112	395.903595	70.727768	-221.316071	347.071747	58.612514	-165.637466	537.243896	40.983368	-218.984879
590	5.89000000	391.581635	1481.802979	28.135004	436.948853	1494.089478	-337.309174	377.528778	1549.733276	-161.051498	529.841675	1431.623291	-149.040588	419.638580	1165.460205	149.616745	381.784027	1183.313599	-459.872986	559.392273	952.495331	119.623947	465.291519	934.264069	-436.337982	485.292908	960.312134	-3.281662	519.361450	942.247131	-296.259674	296.862244	969.043823	-114.797310	307.288666	959.865051	-221.143509	302.075455	964.454437	-167.970409	298.743744	1219.948853	-181.499268	579.736633	1273.284424	-134.891205	476.762512	768.247437	85.516716	501.865906	499.149567	57.428040	374.411652	355.046021	113.229111	286.087433	147.106628	25.730486	247.687378	149.979462	-32.145042	395.002777	47.400867	41.351986	469.231964	683.149170	-360.820587	489.308319	465.477722	-267.977814	446.187683	326.464600	-321.283051	395.944183	70.760025	-221.263687	347.105499	58.639023	-165.624542	537.271912	40.966835	-218.949387
591	5.90000000	393.256134	1482.020508	27.304007	438.330505	1494.190430	-338.178223	379.157379	1549.909912	-161.891830	531.492493	1431.848755	-149.936829	420.765564	1165.634277	148.835266	382.873413	1183.288208	-460.427612	559.508850	951.946594	119.617302	466.295166	934.218323	-436.768936	486.801819	961.113892	-3.593909	520.919495	942.138733	-296.501923	298.364716	969.260254	-115.127884	308.811554	959.834534	-221.430023	303.588135	964.547394	-168.278954	300.453552	1220.125366	-182.274216	581.412598	1273.502563	-135.727493	478.880554	769.212036	85.456772	504.705658	500.145386	57.574253	378.733765	354.730255	113.461288	293.655396	145.109650	26.369823	255.293167	147.220840	-31.555790	404.301361	47.411831	42.573959	470.600433	683.103149	-360.689026	489.842133	465.375946	-267.846954	446.535248	326.458771	-321.187561	395.988983	70.796898	-221.209274	347.139923	58.670906	-165.602524	537.302063	40.953335	-218.904480
592	5.91000000	394.941284	1482.231934	26.511232	439.727203	1494.269653	-339.009552	380.798859	1550.072876	-162.697662	533.152710	1432.054565	-150.791367	421.901031	1165.803345	148.092590	383.967285	1183.240601	-460.936829	559.608002	951.379608	119.688072	467.289658	934.148132	-437.128555	488.260834	961.874084	-3.852290	522.470032	942.020081	-296.686768	299.835846	969.475647	-115.435600	310.317596	959.809204	-221.694412	305.076721	964.642426	-168.565006	302.165894	1220.290649	-183.004654	583.089355	1273.698120	-136.512375	480.886292	770.116333	85.427338	507.418365	501.082947	57.630413	383.270599	354.143677	113.728958	301.705627	142.773148	27.092102	263.368744	143.999878	-30.856167	414.312317	47.402859	43.851818	472.010345	683.061157	-360.523071	490.388641	465.279724	-267.676514	446.905518	326.457184	-321.068604	396.036438	70.837463	-221.152786	347.174866	58.706886	-165.572281	537.334106	40.944393	-218.850357
593	5.92000000	396.637360	1482.437378	25.757601	441.144318	1494.325073	-339.801941	382.455078	1550.221436	-163.468460	534.823608	1432.238647	-151.601913	423.044128	1165.968872	147.392273	385.071808	1183.169556	-461.400116	559.697906	950.802185	119.832710	468.278000	934.051178	-437.418320	489.670990	962.585449	-4.058892	524.011841	941.891663	-296.817596	301.276123	969.688904	-115.721825	311.806274	959.790100	-221.938263	306.541199	964.739502	-168.830044	303.880798	1220.444092	-183.689392	584.767212	1273.869141	-137.243393	482.781616	770.955139	85.432060	510.018219	501.959656	57.602722	388.037476	353.304779	114.041214	310.234253	140.145187	27.902552	271.914490	140.378479	-30.040915	424.975189	47.381519	45.167244	473.462097	683.023010	-360.329041	490.945282	465.188171	-267.473206	447.295166	326.457916	-320.929413	396.085083	70.880814	-221.093674	347.209961	58.745667	-165.534943	537.367371	40.941799	-218.787674
594	5.93000000	398.344788	1482.636475	25.044199	442.586945	1494.354614	-340.553986	384.127747	1550.354492	-164.203461	536.506287	1432.398926	-152.366241	424.193878	1166.131592	146.738159	386.193146	1183.073486	-461.816559	559.786835	950.221680	120.047436	469.263336	933.925262	-437.639877	491.034119	963.240906	-4.216174	525.543457	941.753845	-296.898315	302.686401	969.898499	-115.987610	313.277283	959.777832	-222.162827	307.981842	964.838165	-169.075218	305.598236	1220.584961	-184.327118	586.446655	1274.013306	-137.918304	484.569031	771.723206	85.472908	512.517395	502.773712	57.498440	393.041229	352.238770	114.404167	319.232880	137.277969	28.804146	280.925476	136.424454	-29.106569	436.224243	47.357506	46.499516	474.954163	682.988037	-360.113190	491.511017	465.099854	-267.243683	447.701385	326.458588	-320.773346	396.133606	70.926064	-221.031113	347.244629	58.786140	-165.491684	537.400940	40.947430	-218.717545
595	5.94000000	400.064148	1482.828613	24.372297	444.059906	1494.356323	-341.264252	385.818420	1550.471191	-164.901703	538.201599	1432.533447	-153.082138	425.349243	1166.292603	146.134232	387.337219	1182.950928	-462.185059	559.882812	949.645142	120.328354	470.248886	933.768036	-437.795105	492.352875	963.833679	-4.326900	527.063477	941.606995	-296.933319	304.067993	970.102539	-116.233688	314.730377	959.772583	-222.369003	309.399185	964.937561	-169.301346	307.318085	1220.712280	-184.916351	588.127808	1274.128540	-138.535187	486.251038	772.415955	85.550346	514.925842	503.524048	57.325500	398.280334	350.976044	114.820648	328.688965	134.226089	29.797438	290.391388	132.209122	-28.051542	447.992188	47.342560	47.825890	476.482666	682.955444	-359.881500	492.086121	465.013062	-266.994385	448.122345	326.456604	-320.603973	396.181091	70.972305	-220.964172	347.278198	58.827473	-165.443649	537.433655	40.962975	-218.641525
596	5.95000000	401.796173	1483.013184	23.743341	445.567474	1494.328125	-341.931030	387.528442	1550.570435	-165.562027	539.910522	1432.640137	-153.747452	426.509338	1166.452393	145.584473	388.509735	1182.800293	-462.504272	559.993805	949.078796	120.671421	471.238022	933.577332	-437.885910	493.630737	964.357727	-4.394073	528.570435	941.451355	-296.927216	305.422699	970.299072	-116.460472	316.165649	959.774109	-222.557404	310.794174	965.036591	-169.508938	309.040131	1220.824951	-185.455505	589.811035	1274.212646	-139.092392	487.829346	773.029480	85.663849	517.251343	504.210144	57.092133	403.745880	349.550690	115.290344	338.586243	131.044861	30.880348	300.296936	127.804939	-26.876419	460.213318	47.350525	49.122124	478.041443	682.923706	-359.640076	492.672394	464.925873	-266.731506	448.557343	326.449158	-320.424805	396.226990	71.018570	-220.892105	347.309998	58.869087	-165.391922	537.464172	40.989517	-218.561371
597	5.96000000	403.541748	1483.189087	23.158957	447.113403	1494.268433	-342.552643	389.258911	1550.651245	-166.182999	541.633667	1432.717285	-154.360138	427.673492	1166.610962	145.092804	389.716003	1182.620117	-462.772766	560.127625	948.528198	121.072567	472.234268	933.351135	-437.914383	494.871826	964.807556	-4.420851	530.063110	941.286987	-296.885010	306.752686	970.485596	-116.668045	317.583466	959.781616	-222.728302	312.168076	965.133606	-169.698174	310.764160	1220.922119	-185.942841	591.496521	1274.263794	-139.588623	489.304047	773.560974	85.812645	519.499390	504.832031	56.806507	409.423035	347.998932	115.809982	348.904907	127.788872	32.047897	310.622162	123.283356	-25.584455	472.826050	47.397362	50.363132	479.622437	682.891357	-359.394836	493.272827	464.836151	-266.460815	449.006866	326.433472	-320.239105	396.271240	71.063713	-220.814621	347.339417	58.910564	-165.337555	537.491211	41.027153	-218.478821
598	5.97000000	405.301819	1483.355225	22.620939	448.700806	1494.175293	-343.127167	391.010620	1550.712524	-166.762924	543.371521	1432.762817	-154.918228	428.841400	1166.768311	144.662888	390.961060	1182.409058	-462.989258	560.291779	947.997894	121.527672	473.241287	933.087677	-437.882645	496.080963	965.178528	-4.410478	531.540649	941.114075	-296.811707	308.060669	970.659485	-116.856194	318.984650	959.793884	-222.881668	313.522659	965.226685	-169.868931	312.489868	1221.002441	-186.376556	593.184509	1274.280029	-140.022888	490.673218	774.008240	85.996010	521.674072	505.390198	56.476414	415.292511	346.357361	116.373680	359.621490	124.510658	33.291908	321.342407	118.712936	-24.182207	485.774139	47.500946	51.523682	481.216339	682.856384	-359.151672	493.891632	464.741760	-266.187622	449.472595	326.406891	-320.049683	396.314209	71.106422	-220.732040	347.366058	58.951565	-165.281494	537.513550	41.074806	-218.395477
